<svg viewBox="0 0 330 200" xmlns="http://www.w3.org/2000/svg"><g><g><g><g><g><line x1="37.72000217437744" y1="173.54999923706055" x2="32.72000217437744" y2="173.54999923706055" style="visibility: inherit;" fill="rgb(0, 0, 0)" stroke="rgb(204, 204, 204)" stroke-width="1px"></line><line x1="37.72000217437744" y1="160.1999992957482" x2="32.72000217437744" y2="160.1999992957482" style="visibility: inherit;" fill="rgb(0, 0, 0)" stroke="rgb(204, 204, 204)" stroke-width="1px"></line><line x1="37.72000217437744" y1="146.84999935443585" x2="32.72000217437744" y2="146.84999935443585" style="visibility: inherit;" fill="rgb(0, 0, 0)" stroke="rgb(204, 204, 204)" stroke-width="1px"></line><line x1="37.72000217437744" y1="133.4999994131235" x2="32.72000217437744" y2="133.4999994131235" style="visibility: inherit;" fill="rgb(0, 0, 0)" stroke="rgb(204, 204, 204)" stroke-width="1px"></line><line x1="37.72000217437744" y1="120.14999947181114" x2="32.72000217437744" y2="120.14999947181114" style="visibility: inherit;" fill="rgb(0, 0, 0)" stroke="rgb(204, 204, 204)" stroke-width="1px"></line><line x1="37.72000217437744" y1="106.79999953049881" x2="32.72000217437744" y2="106.79999953049881" style="visibility: inherit;" fill="rgb(0, 0, 0)" stroke="rgb(204, 204, 204)" stroke-width="1px"></line><line x1="37.72000217437744" y1="93.44999958918646" x2="32.72000217437744" y2="93.44999958918646" style="visibility: inherit;" fill="rgb(0, 0, 0)" stroke="rgb(204, 204, 204)" stroke-width="1px"></line><line x1="37.72000217437744" y1="80.0999996478741" x2="32.72000217437744" y2="80.0999996478741" style="visibility: inherit;" fill="rgb(0, 0, 0)" stroke="rgb(204, 204, 204)" stroke-width="1px"></line><line x1="37.72000217437744" y1="66.74999970656174" x2="32.72000217437744" y2="66.74999970656174" style="visibility: inherit;" fill="rgb(0, 0, 0)" stroke="rgb(204, 204, 204)" stroke-width="1px"></line><line x1="37.72000217437744" y1="53.399999765249405" x2="32.72000217437744" y2="53.399999765249405" style="visibility: inherit;" fill="rgb(0, 0, 0)" stroke="rgb(204, 204, 204)" stroke-width="1px"></line><line x1="37.72000217437744" y1="40.049999823937064" x2="32.72000217437744" y2="40.049999823937064" style="visibility: inherit;" fill="rgb(0, 0, 0)" stroke="rgb(204, 204, 204)" stroke-width="1px"></line><line x1="37.72000217437744" y1="26.699999882624702" x2="32.72000217437744" y2="26.699999882624702" style="visibility: inherit;" fill="rgb(0, 0, 0)" stroke="rgb(204, 204, 204)" stroke-width="1px"></line><line x1="37.72000217437744" y1="13.34999994131236" x2="32.72000217437744" y2="13.34999994131236" style="visibility: inherit;" fill="rgb(0, 0, 0)" stroke="rgb(204, 204, 204)" stroke-width="1px"></line><line x1="37.72000217437744" y1="0" x2="32.72000217437744" y2="0" style="visibility: inherit;" fill="rgb(0, 0, 0)" stroke="rgb(204, 204, 204)" stroke-width="1px"></line></g><g transform="translate(27.72000217437744, 0)"><text style="text-anchor: end; visibility: hidden; font-family: Roboto, sans-serif; font-size: 12px; font-weight: 200;" x="0" y="173.54999923706055" dx="0em" dy="0.3em" fill="rgb(33, 33, 33)" stroke="none" stroke-width="1px">0</text><text style="text-anchor: end; visibility: inherit; font-family: Roboto, sans-serif; font-size: 12px; font-weight: 200;" x="0" y="160.1999992957482" dx="0em" dy="0.3em" fill="rgb(33, 33, 33)" stroke="none" stroke-width="1px">0.2</text><text style="text-anchor: end; visibility: hidden; font-family: Roboto, sans-serif; font-size: 12px; font-weight: 200;" x="0" y="146.84999935443585" dx="0em" dy="0.3em" fill="rgb(33, 33, 33)" stroke="none" stroke-width="1px">0.4</text><text style="text-anchor: end; visibility: inherit; font-family: Roboto, sans-serif; font-size: 12px; font-weight: 200;" x="0" y="133.4999994131235" dx="0em" dy="0.3em" fill="rgb(33, 33, 33)" stroke="none" stroke-width="1px">0.6</text><text style="text-anchor: end; visibility: hidden; font-family: Roboto, sans-serif; font-size: 12px; font-weight: 200;" x="0" y="120.14999947181114" dx="0em" dy="0.3em" fill="rgb(33, 33, 33)" stroke="none" stroke-width="1px">0.8</text><text style="text-anchor: end; visibility: inherit; font-family: Roboto, sans-serif; font-size: 12px; font-weight: 200;" x="0" y="106.79999953049881" dx="0em" dy="0.3em" fill="rgb(33, 33, 33)" stroke="none" stroke-width="1px">1</text><text style="text-anchor: end; visibility: hidden; font-family: Roboto, sans-serif; font-size: 12px; font-weight: 200;" x="0" y="93.44999958918646" dx="0em" dy="0.3em" fill="rgb(33, 33, 33)" stroke="none" stroke-width="1px">1.2</text><text style="text-anchor: end; visibility: inherit; font-family: Roboto, sans-serif; font-size: 12px; font-weight: 200;" x="0" y="80.0999996478741" dx="0em" dy="0.3em" fill="rgb(33, 33, 33)" stroke="none" stroke-width="1px">1.4</text><text style="text-anchor: end; visibility: hidden; font-family: Roboto, sans-serif; font-size: 12px; font-weight: 200;" x="0" y="66.74999970656174" dx="0em" dy="0.3em" fill="rgb(33, 33, 33)" stroke="none" stroke-width="1px">1.6</text><text style="text-anchor: end; visibility: inherit; font-family: Roboto, sans-serif; font-size: 12px; font-weight: 200;" x="0" y="53.399999765249405" dx="0em" dy="0.3em" fill="rgb(33, 33, 33)" stroke="none" stroke-width="1px">1.8</text><text style="text-anchor: end; visibility: hidden; font-family: Roboto, sans-serif; font-size: 12px; font-weight: 200;" x="0" y="40.049999823937064" dx="0em" dy="0.3em" fill="rgb(33, 33, 33)" stroke="none" stroke-width="1px">2</text><text style="text-anchor: end; visibility: inherit; font-family: Roboto, sans-serif; font-size: 12px; font-weight: 200;" x="0" y="26.699999882624702" dx="0em" dy="0.3em" fill="rgb(33, 33, 33)" stroke="none" stroke-width="1px">2.2</text><text style="text-anchor: end; visibility: hidden; font-family: Roboto, sans-serif; font-size: 12px; font-weight: 200;" x="0" y="13.34999994131236" dx="0em" dy="0.3em" fill="rgb(33, 33, 33)" stroke="none" stroke-width="1px">2.4</text><text style="text-anchor: end; visibility: hidden; font-family: Roboto, sans-serif; font-size: 12px; font-weight: 200;" x="0" y="0" dx="0em" dy="0.3em" fill="rgb(33, 33, 33)" stroke="none" stroke-width="1px">2.6</text></g><line x1="37.72000217437744" y1="0" x2="37.72000217437744" y2="173.54999923706055" fill="rgb(0, 0, 0)" stroke="rgb(204, 204, 204)" stroke-width="1px"></line></g></g><g transform="translate(37, 0)" clip-path="url(#clip_0)"><clipPath id="clip_0"><rect width="292" height="173"></rect></clipPath><g><g><g><line x1="0" y1="0" x2="0" y2="173.54999923706055" fill="rgb(0, 0, 0)" stroke="rgb(66, 66, 66)" stroke-width="1px" opacity="0.25"></line><line x1="26.570908893238414" y1="0" x2="26.570908893238414" y2="173.54999923706055" fill="rgb(0, 0, 0)" stroke="rgb(66, 66, 66)" stroke-width="1px" opacity="0.25"></line><line x1="53.14181778647683" y1="0" x2="53.14181778647683" y2="173.54999923706055" fill="rgb(0, 0, 0)" stroke="rgb(66, 66, 66)" stroke-width="1px" opacity="0.25"></line><line x1="79.71272667971523" y1="0" x2="79.71272667971523" y2="173.54999923706055" fill="rgb(0, 0, 0)" stroke="rgb(66, 66, 66)" stroke-width="1px" opacity="0.25"></line><line x1="106.28363557295366" y1="0" x2="106.28363557295366" y2="173.54999923706055" fill="rgb(0, 0, 0)" stroke="rgb(66, 66, 66)" stroke-width="1px" opacity="0.25"></line><line x1="132.85454446619207" y1="0" x2="132.85454446619207" y2="173.54999923706055" fill="rgb(0, 0, 0)" stroke="rgb(66, 66, 66)" stroke-width="1px" opacity="0.25"></line><line x1="159.42545335943046" y1="0" x2="159.42545335943046" y2="173.54999923706055" fill="rgb(0, 0, 0)" stroke="rgb(66, 66, 66)" stroke-width="1px" opacity="0.25"></line><line x1="185.9963622526689" y1="0" x2="185.9963622526689" y2="173.54999923706055" fill="rgb(0, 0, 0)" stroke="rgb(66, 66, 66)" stroke-width="1px" opacity="0.25"></line><line x1="212.5672711459073" y1="0" x2="212.5672711459073" y2="173.54999923706055" fill="rgb(0, 0, 0)" stroke="rgb(66, 66, 66)" stroke-width="1px" opacity="0.25"></line><line x1="239.13818003914574" y1="0" x2="239.13818003914574" y2="173.54999923706055" fill="rgb(0, 0, 0)" stroke="rgb(66, 66, 66)" stroke-width="1px" opacity="0.25"></line><line x1="265.70908893238413" y1="0" x2="265.70908893238413" y2="173.54999923706055" fill="rgb(0, 0, 0)" stroke="rgb(66, 66, 66)" stroke-width="1px" opacity="0.25"></line><line x1="292.27999782562256" y1="0" x2="292.27999782562256" y2="173.54999923706055" fill="rgb(0, 0, 0)" stroke="rgb(66, 66, 66)" stroke-width="1px" opacity="0.25"></line></g><g><line x1="0" y1="173.54999923706055" x2="292.27999782562256" y2="173.54999923706055" fill="rgb(0, 0, 0)" stroke="rgb(66, 66, 66)" stroke-width="1px" opacity="0.25"></line><line x1="0" y1="160.1999992957482" x2="292.27999782562256" y2="160.1999992957482" fill="rgb(0, 0, 0)" stroke="rgb(66, 66, 66)" stroke-width="1px" opacity="0.25"></line><line x1="0" y1="146.84999935443585" x2="292.27999782562256" y2="146.84999935443585" fill="rgb(0, 0, 0)" stroke="rgb(66, 66, 66)" stroke-width="1px" opacity="0.25"></line><line x1="0" y1="133.4999994131235" x2="292.27999782562256" y2="133.4999994131235" fill="rgb(0, 0, 0)" stroke="rgb(66, 66, 66)" stroke-width="1px" opacity="0.25"></line><line x1="0" y1="120.14999947181114" x2="292.27999782562256" y2="120.14999947181114" fill="rgb(0, 0, 0)" stroke="rgb(66, 66, 66)" stroke-width="1px" opacity="0.25"></line><line x1="0" y1="106.79999953049881" x2="292.27999782562256" y2="106.79999953049881" fill="rgb(0, 0, 0)" stroke="rgb(66, 66, 66)" stroke-width="1px" opacity="0.25"></line><line x1="0" y1="93.44999958918646" x2="292.27999782562256" y2="93.44999958918646" fill="rgb(0, 0, 0)" stroke="rgb(66, 66, 66)" stroke-width="1px" opacity="0.25"></line><line x1="0" y1="80.0999996478741" x2="292.27999782562256" y2="80.0999996478741" fill="rgb(0, 0, 0)" stroke="rgb(66, 66, 66)" stroke-width="1px" opacity="0.25"></line><line x1="0" y1="66.74999970656174" x2="292.27999782562256" y2="66.74999970656174" fill="rgb(0, 0, 0)" stroke="rgb(66, 66, 66)" stroke-width="1px" opacity="0.25"></line><line x1="0" y1="53.399999765249405" x2="292.27999782562256" y2="53.399999765249405" fill="rgb(0, 0, 0)" stroke="rgb(66, 66, 66)" stroke-width="1px" opacity="0.25"></line><line x1="0" y1="40.049999823937064" x2="292.27999782562256" y2="40.049999823937064" fill="rgb(0, 0, 0)" stroke="rgb(66, 66, 66)" stroke-width="1px" opacity="0.25"></line><line x1="0" y1="26.699999882624702" x2="292.27999782562256" y2="26.699999882624702" fill="rgb(0, 0, 0)" stroke="rgb(66, 66, 66)" stroke-width="1px" opacity="0.25"></line><line x1="0" y1="13.34999994131236" x2="292.27999782562256" y2="13.34999994131236" fill="rgb(0, 0, 0)" stroke="rgb(66, 66, 66)" stroke-width="1px" opacity="0.25"></line><line x1="0" y1="0" x2="292.27999782562256" y2="0" fill="rgb(0, 0, 0)" stroke="rgb(66, 66, 66)" stroke-width="1px" opacity="0.25"></line></g></g></g><g><g><line x1="0" y1="173.54999923706055" x2="292.27999782562256" y2="173.54999923706055" fill="rgb(0, 0, 0)" stroke="rgb(153, 153, 153)" stroke-width="1.5px"></line></g></g><g><g><line x1="26.570908893238414" y1="0" x2="26.570908893238414" y2="173.54999923706055" fill="rgb(0, 0, 0)" stroke="rgb(153, 153, 153)" stroke-width="1.5px"></line></g></g><g><g><g><g><g><path style="fill: none;" stroke="rgb(255, 112, 67)" stroke-width="2px" d="M26.59747980213165,18.23376920552179L26.863188891064038,30.73181665142816L27.12889797999642,51.08922738453123L27.394607068928806,70.7131905544806L27.66031615786119,83.4954435286362L27.926025246793575,99.19644455739838L28.191734335725958,107.19199225479755L28.45744342465834,112.24366442416581L28.723152513590726,105.17681735384306L28.98886160252311,116.82019038630172L29.254570691455495,119.77345054337592L29.52027978038788,126.59514006106077L29.785988869320263,129.74404954475983L30.05169795825265,128.0693995597541L30.31740704718503,131.28935380685857L30.583116136117415,135.06012470769136L30.848825225049797,134.07932103422291L31.114534313982183,137.02273394964433L31.38024340291457,140.56018398460557L31.645952491846952,137.56280467049658L31.911661580779338,133.958546753323L32.17737066971172,136.1744523457856L32.4430797586441,135.30349548946847L32.708788847576486,139.6628259473411L32.974497936508875,136.61962106361537L33.24020702544126,144.50971906284596L33.50591611437364,140.01954742525476L33.77162520330602,138.16717218557784L34.037334292238405,141.0341308847061L34.303043381170795,135.0132121149725L34.56875247010318,135.13097830976926L34.83446155903556,133.89838849992236L35.10017064796795,131.92514403960305L35.365879736900325,135.08471613191685L35.631588825832715,144.60399188902915L35.8972979147651,134.43476329892337L36.16300700369748,140.23964328130995L36.42871609262987,146.19376233044767L36.69442518156225,151.08380456635498L36.960134270494635,149.0060424868076L37.225843359427024,146.82542722638732L37.4915524483594,147.92234108376505L37.75726153729178,149.1766594423307L38.02297062622417,149.1050113676537L38.288679715156555,150.28777020421887L38.554388804088944,153.2112641691231L38.82009789302132,151.3164269058496L39.08580698195371,153.12730615446796L39.35151607088609,145.51124335369337L39.617225159818474,146.7763311647261L39.882934248750864,148.46022846094925L40.14864333768324,150.51476258742656L40.41435242661563,145.53160752759825L40.68006151554801,144.76024791444L40.9457706044804,147.22477404189505L41.21147969341278,145.5734336638247L41.47718878234516,142.18887086741685L41.74289787127755,143.46199004856135L42.00860696020993,149.23662288114357L42.27431604914232,146.37818693164556L42.5400251380747,151.16606755720647L42.805734227007086,153.46264346883822L43.07144331593947,142.61546228153958L43.33715240487186,141.92247140086138L43.60286149380424,139.89262958469484L43.868570582736616,147.04507464919533L44.134279671669006,151.97217357569627L44.39998876060139,141.9073013138934L44.66569784953378,146.8744450532989L44.93140693846616,150.44543791396575L45.19711602739854,147.8607534426789L45.462825116330926,149.0651843087305L45.728534205263315,146.41437620844113L45.9942432941957,146.2415679726515L46.25995238312807,149.81549926850582L46.52566147206046,146.4939823282074L46.791370560992846,139.97973278826228L47.057079649925235,144.91964835480528L47.32278873885762,143.4700945649814L47.58849782778999,141.09913008192444L47.85420691672238,142.68154700211102L48.119916005654765,143.2271753985624L48.385625094587155,138.04887231680345L48.65133418351954,144.01306163708665L48.91704327245192,139.43777126984966L49.1827523613843,146.70912057380625L49.44846145031669,134.12984971652594L49.714170539249075,136.71540747387877L49.979879628181465,140.09612929628517L50.24558871711384,144.87340712936054L50.51129780604622,139.74573334236885L50.77700689497861,140.22753739832277L51.042715983910995,139.46860939186112L51.30842507284338,136.94880118271294L51.520992343989285,138.68773187885276L51.786701432921674,146.44612821341983L52.05241052185405,140.82913933718356L52.31811961078643,146.97856382216145L52.58382869971882,150.6077269306628L52.849537788651205,144.49138888232625L53.115246877583594,138.87141624230395L53.38095596651597,142.0467176558201L53.64666505544836,138.56513267205963L53.91237414438074,140.1914355699327L54.17808323331313,146.21074924971393L54.443792322245514,145.56055782527199L54.70950141117789,151.69021786914428L54.97521050011028,149.913988467605L55.24091958904266,143.2700072260398L55.50662867797505,145.0529785927239L55.772337766907434,142.91355091182004L56.038046855839816,143.0375718849562L56.3037559447722,149.62105173422515L56.56946503370459,139.6697393652947L56.83517412263697,147.53408409605302L57.10088321156935,152.0512809636794L57.366592300501736,153.2673234747148L57.63230138943412,152.29958323395505L57.89801047836651,151.3218817665968L58.16371956729889,140.1657022138459L58.429428656231266,141.9384535315135L58.695137745163656,142.1316807318233L58.96084683409604,134.15500331900742L59.22655592302843,142.8704147528196L59.49226501196081,146.7455607896968L59.75797410089319,141.71230148124224L60.023683189825576,139.23569830099785L60.289392278757965,140.41618491466434L60.55510136769035,145.1394259366215L60.82081045662274,144.8557030911388L61.08651954555511,150.10655192073574L61.352228634487496,145.19483571097354L61.617937723419885,136.5665466223599L61.88364681235227,143.54349790280665L62.14935590128465,143.3305513994399L62.41506499021703,132.96725857808346L62.68077407914942,134.14750503692764L62.946483168081805,143.0574428871075L63.21219225701419,145.0956743677885L63.47790134594657,142.07590548888433L63.74361043487895,148.79140657948253L64.00931952381134,149.50559289779804L64.27502861274372,149.98799018719336L64.54073770167611,151.14759990724593L64.80644679060849,151.19025701123638L65.07215587954087,142.3997034366013L65.33786496847326,144.06639863438244L65.60357405740565,146.31538180664927L65.86928314633803,143.29058997882186L66.13499223527042,146.04601105420323L66.4007013242028,144.8650865277864L66.66641041313518,148.17983992534826L66.93211950206756,149.84111867783838L67.19782859099995,150.67295583378885L67.46353767993233,145.070463390188L67.72924676886471,149.31127685533647L67.99495585779711,154.22562717648125L68.26066494672949,151.76628623465677L68.52637403566187,153.14311827403935L68.79208312459426,156.49523341942233L69.05779221352664,151.9110822957803L69.32350130245902,152.34008110992858L69.5892103913914,153.4198407882073L69.85491948032379,141.7881560030802L70.12062856925617,144.1418621669205L70.38633765818857,149.56076736735778L70.65204674712095,147.37333308266403L70.91775583605333,149.38719817307012L71.18346492498571,147.53256202222522L71.4491740139181,151.13739886282957L71.71488310285048,157.5401946636369L71.98059219178286,158.46302816191803L72.24630128071524,154.13090603390634L72.51201036964763,151.55938594916367L72.77771945858002,151.9800205919519L73.0434285475124,146.22681209171088L73.30913763644479,150.1221853221181L73.57484672537717,143.0557201884425L73.84055581430955,146.57058729962293L74.10626490324194,152.03228859702895L74.37197399217432,155.93474090290073L74.6376830811067,155.63915176753275L74.90339217003908,154.008571189944L75.16910125897148,152.18852163456557L75.43481034790386,151.46450059675362L75.70051943683625,154.21394995481333L75.96622852576863,155.313023707416L76.23193761470101,153.07667405393258L76.44450488584691,148.94780258579075L76.7102139747793,148.78365232421234L76.97592306371169,152.7870681195084L77.24163215264407,153.53899107967052L77.50734124157646,152.68003870625085L77.77305033050884,156.16107680897923L78.03875941944123,158.13151704923953L78.30446850837362,143.06288637113008L78.570177597306,146.86033318093325L78.83588668623837,149.3717902611046L79.10159577517075,154.20569915873554L79.36730486410315,150.36934583389214L79.63301395303553,147.63496901308787L79.89872304196791,149.1777592970298L80.1644321309003,147.179405754195L80.43014121983268,149.01159952561295L80.69585030876507,141.0337560153212L80.96155939769746,142.92238885737612L81.22726848662982,146.56015847581497L81.49297757556221,148.98096711119928L81.75868666449459,150.22755524521924L82.02439575342699,144.01974560299428L82.29010484235937,142.8222116325738L82.55581393129175,147.65477367606996L82.82152302022413,150.36455348436934L83.08723210915653,154.47363699593762L83.35294119808891,151.01416214584083L83.6186502870213,152.940515700021L83.88435937595366,152.5472035030965L84.15006846488605,152.60815099093705L84.41577755381844,147.7643678454402L84.68148664275083,147.59196402676554L84.94719573168321,146.5209190040566L85.21290482061559,144.9466940881755L85.47861390954799,141.19228172556709L85.74432299848037,140.93660689586855L86.01003208741275,146.9141572857335L86.27574117634512,151.00214715026192L86.5414502652775,149.7943059370826L86.8071593542099,144.51650058960917L87.07286844314228,142.44302801388866L87.33857753207467,150.26555455926652L87.60428662100705,149.64467318374395L87.86999570993945,147.32104832699716L88.13570479887183,143.56915866301026L88.40141388780421,145.37790993139959L88.6671229767366,147.55353696341766L88.93283206566896,150.31300284164908L89.19854115460136,147.53564585507783L89.46425024353374,151.91598484191206L89.72995933246612,150.2731229237733L89.9956684213985,145.4946429914924L90.2613775103309,145.25398749006504L90.52708659926328,134.6874127807245L90.79279568819567,143.04109860971067L91.05850477712805,143.64049050255434L91.32421386606042,134.16318741951872L91.58992295499282,146.78863510383638L91.8556320439252,146.90112543228585L92.12134113285758,152.5160568526025L92.38705022178996,156.09834399980082L92.65275931072235,153.20595641996587L92.91846839965474,151.50883629512566L93.18417748858712,152.23492530917378L93.44988657751951,146.27003918065355L93.71559566645189,141.6971186303762L93.98130475538427,142.2229219707607L94.24701384431665,137.19887777134778L94.51272293324904,143.5856536923567L94.77843202218142,138.67083741695896L95.0441411111138,147.52493033546733L95.3098502000462,150.0022198324754L95.57555928897858,152.14555991899795L95.84126837791096,146.0749087453116L96.10697746684335,149.49866789449885L96.37268655577572,152.2942681336599L96.63839564470811,152.23267889355526L96.9041047336405,149.82315208256824L97.16981382257288,148.87762605212774L97.43552291150526,154.52100860434274L97.70123200043766,156.89741412084496L97.96694108937004,154.07368059323184L98.23265017830242,154.22427022159522L98.4983592672348,154.45803697543985L98.7640683561672,152.74136116824266L99.02977744509957,150.18842891003777L99.29548653403195,152.1576744978769L99.56119562296433,145.2008899098242L99.82690471189672,150.60379857769385L100.09261380082911,151.0791092060191L100.3583228897615,153.18778008518137L100.62403197869388,154.2351958872806L100.88974106762626,157.01510658781046L101.15545015655866,153.8873120820835L101.36801742770454,155.9102930669303L101.63372651663693,153.6557983953352L101.89943560556932,151.2411310055016L102.1651446945017,154.7961006819673L102.43085378343409,153.20780538200617L102.69656287236647,146.543965593549L102.96227196129887,145.2412082045393L103.22798105023125,150.79682266649738L103.49369013916362,147.17001455321667L103.759399228096,145.42800717867655L104.02510831702838,149.01051583869122L104.29081740596078,150.31941553507465L104.55652649489316,149.34188179152358L104.82223558382555,144.86786567222293L105.08794467275793,138.46294955156313L105.35365376169032,141.80498524384748L105.61936285062271,142.83439605524006L105.88507193955508,147.70865157280264L106.15078102848746,147.48721688282978L106.41649011741984,145.46698225123544L106.68219920635224,145.66785755288385L106.94790829528462,148.43816883691696L107.213617384217,151.84493830486718L107.47932647314938,150.70385569888063L107.74503556208178,147.34365614519098L108.01074465101416,149.80818415688978L108.27645373994655,148.50939352196232L108.54216282887892,154.3293818934362L108.8078719178113,152.18581744901752L109.0735810067437,143.93803348695192L109.33929009567608,149.15890835190027L109.60499918460846,154.17336236066586L109.87070827354084,149.59979832003455L110.13641736247322,151.55777457923617L110.40212645140562,142.73815748431562L110.667835540338,150.48972704834443L110.93354462927037,154.10534295119754L111.19925371820275,154.28353116978988L111.46496280713514,155.95466367465954L111.73067189606753,148.73828325018866L111.99638098499992,142.8564040005419L112.2620900739323,139.80725118938744L112.52779916286468,137.94404157848655L112.79350825179708,137.36153009405996L113.05921734072946,137.56308138012162L113.32492642966184,145.7062474563722L113.59063551859421,150.75098156925264L113.8563446075266,155.540506614386L114.12205369645899,142.69029968443226L114.38776278539137,142.47073246376962L114.65347187432376,148.1780129301356L114.91918096325614,149.5790248675937L115.18489005218854,150.31223422687643L115.45059914112092,151.06485392273555L115.7163082300533,154.4576943621171L115.98201731898567,152.75758089386082L116.24772640791805,145.6665215440195L116.51343549685045,144.59806903594796L116.77914458578283,145.89689695821644L117.04485367471521,137.16648343553288L117.3105627636476,133.56531080448548L117.57627185257999,132.86438470576405L117.84198094151238,136.6692505490235L118.10769003044476,137.977834719597L118.37339911937714,138.16549348338734L118.63910820830951,146.71800449422278L118.9048172972419,150.35270668665413L119.17052638617429,151.46218540147024L119.43623547510667,149.0647415707084L119.70194456403905,142.02834869211244L119.96765365297145,144.0185785836985L120.23336274190383,149.1132956530141L120.49907183083621,151.69928604457863L120.7647809197686,148.22989353000648L121.03049000870097,153.90659053172214L121.29619909763336,154.14041362803104L121.56190818656574,150.61907014205568L121.82761727549813,154.96612744786367L122.09332636443051,149.4695636051565L122.35903545336289,154.93958063123495L122.62474454229529,146.90550846823268L122.89045363122767,139.3385638321023L123.15616272016005,139.46315338162682L123.42187180909244,145.7998056163235L123.68758089802482,146.23035465400002L123.9532899869572,136.19698993671128L124.21899907588958,141.2831145678562L124.48470816482197,139.4404497112292L124.75041725375435,143.12226847113342L125.01612634268675,147.59926213011667L125.28183543161913,148.82969765027707L125.54754452055151,145.66375929289L125.8132536094839,150.79122366379568L126.07896269841626,149.57076288154843L126.29152996956218,145.11069114956175L126.55723905849457,143.8231042313135L126.82294814742696,148.34269224293288L127.08865723635934,152.01769756921144L127.35436632529172,152.6256198617936L127.6200754142241,150.73196698070095L127.8857845031565,143.69381682135534L128.15149359208885,140.30347633580226L128.41720268102125,141.83578161834464L128.68291176995365,144.58456627886082L128.94862085888602,141.7162550987085L129.2143299478184,145.13687863875282L129.48003903675078,150.91426100909783L129.74574812568318,149.75684495336782L130.01145721461558,144.43103146263556L130.27716630354794,142.18792552920303L130.5428753924803,144.5259819161893L130.8085844814127,148.79515043338463L131.0742935703451,154.79312223833594L131.34000265927747,150.1071187563627L131.60571174820987,144.60998434453765L131.87142083714224,146.21345468750417L132.13712992607464,144.04823324115557L132.40283901500703,150.18718382094653L132.6685481039394,144.27982308044233L132.9342571928718,148.7944878481604L133.19996628180417,143.68909053502364L133.46567537073656,145.86761117101062L133.73138445966893,147.6532763360148L133.99709354860133,154.8789758137927L134.2628026375337,147.39001724453155L134.5285117264661,146.15066448428072L134.7942208153985,150.73022734244745L135.05992990433086,151.30326119619394L135.32563899326325,153.58325059079732L135.59134808219562,147.80618103155453L135.85705717112802,145.9546072469318L136.1227662600604,146.37957991176418L136.38847534899278,147.87125475662413L136.65418443792515,147.5684473947074L136.91989352685755,145.6553435112823L137.18560261578995,148.74366641527115L137.45131170472231,148.67437005850712L137.7170207936547,150.1336289797752L137.98272988258708,151.23182416643817L138.24843897151948,149.90702541916028L138.51414806045184,148.40716034668515L138.77985714938424,152.48311021720883L139.0455662383166,153.94695533174834L139.311275327249,156.2726978342321L139.5769844161814,146.80629249742503L139.84269350511377,146.0458175705765L140.10840259404617,142.0083411738927L140.37411168297854,145.27186515900408L140.63982077191093,149.1415242192828L140.9055298608433,140.59895552920224L141.1712389497757,143.69697524406365L141.43694803870807,143.94205170824657L141.70265712764046,149.83561808969142L141.96836621657286,154.55623149943375L142.23407530550523,154.5771720657351L142.49978439443763,146.86605838406422L142.76549348337,142.99794559594042L143.0312025723024,143.42173159490125L143.29691166123476,146.03134907980987L143.56262075016716,151.80418535805327L143.82832983909952,152.96205901979187L144.09403892803192,146.91361294635246L144.35974801696432,130.02759550070985L144.6254571058967,139.08732689448664L144.89116619482908,145.7614094303435L145.15687528376145,143.40058024408305L145.42258437269385,141.21956098786012L145.68829346162622,146.09580374749058L145.9540025505586,153.67384592146797L146.219711639491,152.50286395358174L146.48542072842338,148.7024215878209L146.75112981735577,148.8995825195111L147.01683890628814,148.39745701897488L147.2825479952205,150.29505125921483L147.5482570841529,152.4530573934941L147.81396617308528,149.47478935078865L148.0796752620177,151.37197843587043L148.34538435095007,146.18045861582436L148.61109343988247,148.82312537542495L148.87680252881484,152.0419583721895L149.14251161774723,152.00089885541726L149.4082207066796,157.23627324697352L149.67392979561197,148.09452096433753L149.93963888454437,147.31652889487077L150.20534797347673,144.48214081029113L150.47105706240916,150.24945127321405L150.73676615134153,152.32499162075734L151.00247524027392,146.61911040656474L151.21504251141982,144.17625175630718L151.4807516003522,146.60482710951698L151.7464606892846,151.4471149681926L152.01216977821696,152.2983086513407L152.27787886714935,151.58653964021093L152.54358795608172,153.27441740425218L152.80929704501412,154.26473812248113L153.0750061339465,147.6180130933373L153.3407152228789,149.26969677137527L153.60642431181128,144.3651206893181L153.87213340074368,136.78828424348097L154.13784248967605,137.5451125289247L154.40355157860841,142.4458194396496L154.6692606675408,149.4757406515323L154.93496975647318,155.03789462461714L155.20067884540558,156.57855812394445L155.46638793433794,151.3634930761873L155.73209702327037,156.2463656548634L155.99780611220274,154.54778012154918L156.26351520113514,154.69697389313185L156.5292242900675,150.47006113224066L156.79493337899987,154.92584952065627L157.06064246793227,153.99248897154385L157.32635155686464,154.39977459066296L157.59206064579703,152.27851536969732L157.8577697347294,155.15182000551604L158.12347882366183,158.43646508550157L158.3891879125942,157.31173677971228L158.6548970015266,160.06156396563472L158.92060609045896,157.16668847984081L159.18631517939133,153.04351464307513L159.45202426832373,149.59120807046983L159.7177333572561,146.16720971220047L159.9834424461885,150.7432991725601L160.24915153512086,139.7810486879194L160.51486062405328,142.44234835959676L160.78056971298565,148.12688657547164L161.04627880191805,152.7485726713936L161.31198789085042,147.40135745095336L161.5776969797828,143.83081407090904L161.84340606871518,148.701421600081L162.10911515764755,153.71557693947753L162.37482424657995,151.74189155147397L162.64053333551232,156.54921277751967L162.90624242444474,145.85319034036806L163.1719515133771,147.32583134389924L163.4376606023095,146.48318777009865L163.70336969124187,152.361604865936L163.96907878017427,150.75376275832363L164.23478786910664,147.62540183477074L164.500496958039,138.62993421134445L164.7662060469714,135.40920954140708L165.03191513590377,140.56888024890043L165.2976242248362,144.4777609660066L165.56333331376857,140.87124078735764L165.82904240270096,145.77775394789612L166.09475149163333,145.93968721894058L166.36046058056573,148.17921648121697L166.6261696694981,151.58810159365783L166.89187875843047,154.5102419204972L167.15758784736286,154.5480115417468L167.42329693629523,151.79520292088074L167.68900602522763,150.4824109756406L167.95471511416002,148.94854590756384L168.22042420309242,149.06748038609499L168.4861332920248,151.32910169741135L168.75184238095719,153.45940327981089L169.01755146988955,149.47032947664331L169.28326055882192,149.98047956259546L169.54896964775432,146.9569058991366L169.8146787366867,148.5719415928314L170.08038782561908,148.4098935147663L170.34609691455148,149.71640183424074L170.61180600348388,146.41636708295533L170.87751509241625,150.38875502938774L171.14322418134864,151.19841995734288L171.408933270281,147.95119734935366L171.67464235921338,150.21443494984644L171.94035144814578,153.8682117448371L172.20606053707814,145.48166530044713L172.47176962601054,144.07719533460315L172.7374787149429,141.34758116319847L173.00318780387533,144.34534053089814L173.2688968928077,145.3982160474175L173.5346059817401,148.32302279175042L173.80031507067247,142.73653345384201L174.06602415960486,149.96928302546755L174.33173324853723,146.90479840229318L174.5974423374696,143.4367856610353L174.863151426402,148.2880359804108L175.12886051533437,146.12556106866796L175.3945696042668,141.97503954275382L175.66027869319916,149.19142265973494L175.92598778213156,145.72755733787363L176.13855505327746,148.87522595850155L176.40426414220983,149.62899068862822L176.66997323114222,149.8132161396255L176.9356823200746,155.42214470559966L177.201391409007,153.73964953150463L177.46710049793936,152.4595337391771L177.73280958687175,152.7901343452153L177.99851867580412,146.7170260553111L178.26422776473655,145.65721258964123L178.52993685366891,149.05710954467793L178.79564594260128,150.66118064548414L179.06135503153368,154.54397557923014L179.32706412046605,153.57911358515926L179.59277320939844,143.2392623529332L179.8584822983308,151.91919324752885L180.1241913872632,140.8313491971275L180.38990047619558,128.9896536391738L180.655609565128,141.43560671469123L180.92131865406037,142.7503047118495L181.18702774299274,149.6779023365743L181.45273683192514,155.5202429357133L181.7184459208575,153.24345178978388L181.9841550097899,150.60162545452087L182.24986409872227,142.9621649957544L182.51557318765467,144.6981327713252L182.78128227658704,147.73503490137534L183.04699136551946,142.92832808499597L183.31270045445183,142.14320061455967L183.57840954338423,143.0809427793305L183.8441186323166,142.4141967858995L184.10982772124896,150.5016658284186L184.37553681018136,143.5265397591784L184.64124589911373,139.4853847650996L184.90695498804612,145.75322657948692L185.1726640769785,140.22332742455583L185.43837316591092,146.54511759169284L185.70408225484329,147.65431685826883L185.96979134377568,148.24067321889925L186.23550043270805,148.43784005519484L186.50120952164042,150.54248269458392L186.76691861057282,155.8273179572796L187.03262769950518,152.19561756149974L187.29833678843758,146.7202640165938L187.56404587736995,145.86580357519344L187.82975496630237,144.31109035540518L188.09546405523474,150.10229040761948L188.36117314416714,152.35035444104415L188.6268822330995,154.9709253169608L188.89259132203188,153.1316662455366L189.15830041096427,153.79246599843518L189.42400949989664,146.8933248894667L189.68971858882904,150.3176139301726L189.9554276777614,154.60680788908695L190.22113676669383,160.21976130889692L190.4868458556262,153.9492604687465L190.7525549445586,155.69732091897603L191.01826403349096,155.1022365080094L191.28397312242333,151.49023328110061L191.54968221135573,151.4061129895121L191.8153913002881,147.20652029933254L192.0811003892205,148.2337973716009L192.34680947815286,149.19499054122713L192.6125185670853,145.3496381615994L192.87822765601766,143.69941381091257L193.14393674495005,146.34623006480126L193.40964583388242,143.10536545463202L193.67535492281482,133.10418526712488L193.9410640117472,138.65448173416866L194.20677310067956,140.75209339130444L194.47248218961195,138.38687315040153L194.73819127854432,136.54763320793813L195.00390036747672,136.38923192467223L195.2696094564091,138.05407439280188L195.5353185453415,140.83278799075535L195.80102763427388,147.8715084953869L196.06673672320628,150.8772085487627L196.33244581213864,149.0147619745749L196.598154901071,148.52274266551342L196.8638639900034,142.95187429882634L197.12957307893578,141.76246721268723L197.39528216786817,134.49566235219484L197.66099125680057,135.02125843291907L197.92670034573297,145.28199489697406L198.19240943466534,144.88985992320366L198.45811852359773,147.31677830525183L198.7238276125301,154.86045729806062L198.98953670146247,147.98022211359856L199.25524579039487,152.54600434865333L199.52095487932723,152.3229195042063L199.78666396825963,154.10348661890734L200.052373057192,155.0726711730559L200.31808214612442,148.27430035036306L200.5837912350568,146.04922259723733L200.8495003239892,146.84643082261553L201.0620675951351,147.62182424513435L201.32777668406746,141.94390659263638L201.59348577299986,150.5840839754506L201.85919486193222,155.6566349544748L202.12490395086462,148.61918654594103L202.390613039797,150.57754625656545L202.65632212872939,153.063782243263L202.92203121766178,149.34704667996243L203.18774030659418,141.26826002460453L203.45344939552655,145.68228901642465L203.71915848445892,146.28031700550466L203.9848675733913,141.9301042911553L204.25057666232368,139.19046654057738L204.51628575125608,147.87399892350672L204.78199484018845,146.62224894069837L205.04770392912084,151.32395082580823L205.3134130180532,141.11965683073333L205.57912210698564,143.87788545789536L205.844831195918,140.207336945314L206.11054028485037,136.58503714684298L206.37624937378277,142.92867171889674L206.64195846271514,140.41899127370652L206.90766755164753,147.96987283117554L207.1733766405799,141.17695617344123L207.4390857295123,146.9351230410923L207.70479481844467,150.2892680457824L207.9705039073771,146.80982420947817L208.23621299630946,146.36117654339276L208.50192208524183,145.10739973033458L208.76763117417423,141.390377694234L209.0333402631066,147.29204072070934L209.299049352039,144.60962671779225L209.56475844097136,144.96798530528662L209.83046752990376,144.8534935672659L210.09617661883613,145.4888939356391L210.36188570776855,146.9258662830263L210.62759479670092,146.3935277816764L210.89330388563332,148.60748551458016L211.15901297456568,149.7653918336292L211.42472206349805,150.89872088364098L211.69043115243045,153.67667359390836L211.95614024136282,149.53701242026742L212.2218493302952,150.97413907492952L212.48755841922758,148.74788217453352L212.75326750816,149.28392479795133L213.01897659709238,152.0286694920804L213.28468568602477,148.09792599568172L213.55039477495714,152.29583174974945L213.8161038638895,144.28088489277891L214.0818129528219,142.26999840868527L214.34752204175427,147.57023732991203L214.61323113068667,149.46227942943676L214.87894021961904,147.6170865446762L215.14464930855146,141.73862911159142L215.41035839748383,148.50310397023043L215.67606748641623,153.3000140069449L215.9417765753486,156.20444551180108L216.20748566428097,157.46500987266182L216.47319475321336,157.5908561698031L216.73890384214573,148.87345397860972L217.00461293107813,139.6824098315829L217.2703220200105,146.97328623374761L217.53603110894292,153.6747021459845L217.8017401978753,154.36720609179648L218.0674492868077,154.7494202249577L218.33315837574006,152.2152698418427L218.59886746467242,145.34401383502L218.86457655360482,149.71189331473377L219.1302856425372,141.36141528280314L219.39599473146959,140.16736504416787L219.66170382040195,141.96199323836515L219.92741290933438,142.21840464015844L220.19312199826675,146.16717862648355L220.45883108719914,140.65597832027484L220.7245401761315,143.27335275767595L220.99024926506388,140.5091454597065L221.25595835399628,150.8655192552616L221.52166744292865,147.95317245618315L221.78737653186104,145.09917686135896L222.0530856207934,148.55589308795516L222.31879470972584,138.531944508695L222.5845037986582,141.8359662170909L222.8502128875906,139.42492671544198L223.11592197652297,142.4153563326402L223.38163106545537,144.86201543413839L223.64734015438773,148.91067581045988L223.9130492433201,150.19303610617854L224.1787583322525,156.9714500447289L224.44446742118487,154.16899970984227L224.71017651011726,151.58585552834654L224.97588559904966,150.82138562802544L225.24159468798206,148.40736407095076L225.50730377691443,154.78128555727207L225.77301286584682,147.54409321658008L225.98558013699272,154.59771964688312L226.2512892259251,148.6419153733437L226.5169983148575,152.53332413114342L226.78270740378986,151.5941660271296L227.04841649272225,154.76431538195195L227.31412558165462,154.09381944279295L227.57983467058702,151.10732554962016L227.84554375951942,150.18570082110438L228.11125284845178,149.21838717060413L228.37696193738418,154.7134383351953L228.64267102631655,150.45816168194432L228.90838011524895,150.9054684161423L229.1740892041813,150.12703400818947L229.4397982931137,140.2779295214575L229.70550738204608,144.15735617065533L229.97121647097848,148.51811052703363L230.23692555991087,155.04584553190375L230.50263464884327,150.53006369851764L230.76834373777564,151.62257979791286L231.034052826708,154.28511838010627L231.2997619156404,144.50710399619817L231.56547100457277,150.9646665378063L231.83118009350517,154.21710661054087L232.09688918243754,150.02573523697404L232.36259827136993,143.24252828788795L232.6283073603023,142.75532016237113L232.89401644923473,149.00117603127887L233.1597255381671,147.30360565292267L233.42543462709946,153.23905904783547L233.69114371603186,154.7921117621085L233.95685280496423,158.06245020715048L234.22256189389662,150.24907994281884L234.488270982829,150.18029722533527L234.7539800717614,148.3705807965462L235.01968916069376,153.39062904799275L235.28539824962618,152.35588165637728L235.55110733855855,156.46270967865306L235.81681642749092,156.0533317934708L236.08252551642332,156.38252986390208L236.34823460535569,154.10566758312444L236.61394369428808,148.39874186005073L236.87965278322045,149.70571631695003L237.14536187215285,151.83113260252497L237.41107096108522,146.84166462582684L237.67678005001764,142.82261487368302L237.94248913895,141.67298527620147L238.20819822788238,142.6042659120517L238.47390731681477,142.23259098393424L238.73961640574714,144.74634534089472L239.00532549467954,148.6235339767138L239.2710345836119,147.53705118250264L239.5367436725443,140.0146120570525L239.80245276147667,136.87097605488464L240.0681618504091,146.9736971857637L240.33387093934147,141.91891880389113L240.59958002827386,145.8844275978983L240.86528911720623,148.37892318308232L241.1309982061386,148.54572477842999L241.396707295071,145.378177303782L241.66241638400336,134.74357254520456L241.92812547293576,147.54733340722697L242.19383456186813,140.1175602849324L242.45954365080055,136.95668985816457L242.72525273973292,131.18215753094654L242.99096182866532,141.36155204741826L243.2566709175977,143.68788755565288L243.52238000653006,147.69997188437063L243.78808909546245,143.9906928381323L244.05379818439482,145.2752867262543L244.31950727332722,150.2220824518969L244.5852163622596,147.98216454163693L244.850925451192,150.07612832769178L245.11663454012438,148.32696194112103L245.38234362905678,131.6120647098356L245.64805271798915,139.39825190715237L245.9137618069215,147.478650297093L246.1794708958539,149.67803581420236L246.44517998478628,146.77985590722432L246.71088907371868,148.43954109668613L246.97659816265104,146.42601195819927L247.24230725158347,149.63401393880685L247.50801634051584,138.07953184466197L247.77372542944823,141.56589442201644L248.0394345183806,146.09430266203958L248.30514360731297,139.63469552783107L248.57085269624537,146.856069125041L248.83656178517774,150.12967231387606L249.10227087411013,147.0202247900809L249.3679799630425,138.76686764922343L249.63368905197493,139.29949936887823L249.8993981409073,141.32439579804063L250.1651072298397,142.6389596419146L250.43081631877206,129.72140790946816L250.69652540770446,138.35928797117998L250.90909267885036,140.2492507182361L251.17480176778272,139.69352542198976L251.44051085671512,147.45092673214725L251.7062199456475,147.77090942308956L251.9719290345799,146.6434240572599L252.23763812351226,138.46881097135807L252.50334721244468,140.85909832217956L252.76905630137705,146.15965848823564L253.03476539030942,142.5270641649958L253.3004744792418,141.33345646908614L253.56618356817418,146.5199178929919L253.83189265710658,139.62287554037027L254.09760174603895,144.77130679549765L254.36331083497134,148.90957036733644L254.6290199239037,147.2688265389171L254.89472901283614,146.82440652871614L255.1604381017685,152.7275792387434L255.42614719070087,152.19218262619316L255.69185627963327,153.6602704066316L255.95756536856564,157.21872005984835L256.22327445749806,150.82202629543215L256.4889835464304,152.480852072111L256.7546926353628,141.15360612891405L257.0204017242952,143.49201030764027L257.2861108132276,147.73932929019963L257.55181990215993,144.82726064588522L257.81752899109233,141.44508367320327L258.0832380800247,141.50953056194993L258.34894716895707,140.1985523235676L258.6146562578895,147.05836725740787L258.88036534682186,149.07437489234044L259.14607443575426,147.0918968885272L259.41178352468665,142.57792652145673L259.67749261361905,141.58214494208892L259.9432017025514,133.58809621302694L260.2089107914838,143.3189173312839L260.4746198804162,148.92814538478962L260.7403289693485,152.41191974308805L261.0060380582809,146.32042071673575L261.2717471472133,149.66069752587603L261.5374562361457,151.88827370416237L261.8031653250781,144.30945140595048L262.0688744140105,141.937631749216L262.33458350294285,146.63236344262316L262.60029259187525,142.5927738924315L262.86600168080764,139.63981569472372L263.13171076974,142.8274465997008L263.3974198586724,143.26302823860797L263.6631289476048,145.30428798716653L263.9288380365372,149.84972782851386L264.19454712546957,154.41524642733236L264.46025621440197,151.61652818463278L264.7259653033343,149.96444249946612L264.9916743922667,152.63565200440127L265.2573834811991,146.84856952017728L265.52309257013144,150.57491224059584L265.78880165906384,150.40162335309353L266.05451074799623,143.54958446833942L266.32021983692863,149.45799513910032L266.585928925861,154.9668444576761L266.8516380147934,158.80410972524405L267.11734710372576,143.22525227146753L267.38305619265816,149.48911748620176L267.64876528159056,153.60703452887248L267.9144743705229,153.66549899162342L268.1801834594553,140.31337772426278L268.4458925483877,145.2212906676699L268.7116016373201,143.1864602615826L268.9773107262525,149.4220505154887L269.2430198151849,149.35534612020803L269.5087289041172,149.82968136947702L269.7744379930496,146.54170158627173L270.040147081982,150.55864824132777L270.3058561709144,150.5183688377689L270.57156525984675,154.5041801697523L270.83727434877915,150.98171780337023L271.10298343771154,147.73979915903908L271.36869252664394,149.26362192164325L271.63440161557634,147.49279941917288L271.9001107045087,150.92030339515327L272.1658197934411,153.88918381370647L272.43152888237347,150.05848051645214L272.69723797130587,152.3081421304286L272.9629470602382,151.74102410179592L273.2286561491706,154.1174683611601L273.494365238103,146.4563607084356L273.7600743270354,146.5384770483286L274.0257834159678,151.8349915836307L274.29149250490013,156.76234008945633L274.55720159383253,150.9828041660361L274.8229106827649,154.92580237344077L275.0886197716973,151.79226467407176L275.35432886062966,151.56032183758242L275.62003794956206,152.85280404702348" fill="none"></path></g></g></g></g><g opacity="0.2"><g><g><g><path style="fill: none;" stroke="rgb(255, 112, 67)" stroke-width="2px" d="M26.59747980213165,18.23376920552179L26.863188891064038,38.23064511897198L27.12889797999642,70.6323416883102L27.394607068928806,93.79097124234107L27.66031615786119,100.18395301169375L27.926025246793575,120.91658134054678L28.191734335725958,118.62575339084154L28.45744342465834,119.60905094315758L28.723152513590726,94.75459058949193L28.98886160252311,134.10924237423612L29.254570691455495,124.17655492672247L29.52027978038788,136.79055100447863L29.785988869320263,134.4571320344957L30.05169795825265,125.56070539590124L30.31740704718503,136.11550024217024L30.583116136117415,140.7136216191538L30.848825225049797,132.6085305672643L31.114534313982183,141.43710599055606L31.38024340291457,145.86582014213909L31.645952491846952,133.067009671675L31.911661580779338,128.55235754363264L32.17737066971172,139.49823781916217L32.4430797586441,133.99707740051656L32.708788847576486,146.20176999372484L32.974497936508875,132.0548353678246L33.24020702544126,156.344832414028L33.50591611437364,133.28430145798652L33.77162520330602,135.3886121698948L34.037334292238405,145.33456629252436L34.303043381170795,125.98183728804233L34.56875247010318,135.3076275629119L34.83446155903556,132.04950403039612L35.10017064796795,128.96527758468986L35.365879736900325,139.82407404407385L35.631588825832715,158.88290511558986L35.8972979147651,119.18092067598909L36.16300700369748,148.94696316507884L36.42871609262987,155.12494084888226L36.69442518156225,158.41886789297942L36.960134270494635,145.8893993744301L37.225843359427024,143.5545043401293L37.4915524483594,149.56771186851196L37.75726153729178,151.0581369792738L38.02297062622417,148.9975392556692L38.288679715156555,152.0619084587593L38.554388804088944,157.59650511602362L38.82009789302132,148.4741710111166L39.08580698195371,155.84362502729388L39.35151607088609,134.08714915278802L39.617225159818474,148.67396288124957L39.882934248750864,150.9860744052636L40.14864333768324,153.59656377712756L40.41435242661563,138.05687493787755L40.68006151554801,143.60320849470463L40.9457706044804,150.92156323307375L41.21147969341278,143.09642309672068L41.47718878234516,137.11202667280702L41.74289787127755,145.37166882027768L42.00860696020993,157.89857213001576L42.27431604914232,142.09053300739888L42.5400251380747,158.34788849554752L42.805734227007086,156.9075073362857L43.07144331593947,126.3446905005919L43.33715240487186,140.8829850798441L43.60286149380424,136.847866860445L43.868570582736616,157.773742245946L44.134279671669006,159.3628219654477L44.39998876060139,126.80999292118912L44.66569784953378,154.32516066240717L44.93140693846616,155.80192720496598L45.19711602739854,143.98372673574863L45.462825116330926,150.87183060780794L45.728534205263315,142.4381640580071L45.9942432941957,145.98235561896698L46.25995238312807,155.1763962122873L46.52566147206046,141.51170691775982L46.791370560992846,130.20835847834456L47.057079649925235,152.3295217046198L47.32278873885762,141.29576388024554L47.58849782778999,137.54268335733906L47.85420691672238,145.05517238239088L48.119916005654765,144.04561799323946L48.385625094587155,130.28141769416507L48.65133418351954,152.95934561751142L48.91704327245192,132.5748357189942L49.1827523613843,157.6161445297411L49.44846145031669,115.26094343060545L49.714170539249075,140.59374410990802L49.979879628181465,145.16721202989478L50.24558871711384,152.0393238789736L50.51129780604622,132.0542226618813L50.77700689497861,140.95024348225363L51.042715983910995,138.33021738216868L51.30842507284338,133.16908886899066L51.520992343989285,141.2961279230625L51.786701432921674,158.08372271527045L52.05241052185405,132.40365602282915L52.31811961078643,156.20270054962825L52.58382869971882,156.0514715934149L52.849537788651205,135.31688180982138L53.115246877583594,130.44145728227053L53.38095596651597,146.80966977609427L53.64666505544836,133.34275519641898L53.91237414438074,142.63088991674226L54.17808323331313,155.2397197693858L54.443792322245514,144.5852706886091L54.70950141117789,160.8847079349527L54.97521050011028,147.2496443652961L55.24091958904266,133.304035363692L55.50662867797505,147.72743564275004L55.772337766907434,139.7044093904642L56.038046855839816,143.22360334466052L56.3037559447722,159.49627150812853L56.56946503370459,124.7427708118991L56.83517412263697,159.33060119219047L57.10088321156935,158.82707626511896L57.366592300501736,155.0913872412679L57.63230138943412,150.8479728728154L57.89801047836651,149.85532956555937L58.16371956729889,123.43143288471954L58.429428656231266,144.59758050801491L58.695137745163656,142.4215215322881L58.96084683409604,122.18998719978359L59.22655592302843,155.94353190353792L59.49226501196081,152.55827984501258L59.75797410089319,134.16241251856033L60.023683189825576,135.52079353063132L60.289392278757965,142.18691483516406L60.55510136769035,152.22428746955725L60.82081045662274,144.43011882291475L61.08651954555511,157.98282516513115L61.352228634487496,137.82726139633021L61.617937723419885,123.62411298943948L61.88364681235227,154.00892482347678L62.14935590128465,143.0111316443898L62.41506499021703,117.42231934604875L62.68077407914942,135.91787472519388L62.946483168081805,156.42234966237734L63.21219225701419,148.15302158880993L63.47790134594657,137.54625217052813L63.74361043487895,158.86465821537985L64.00931952381134,150.57687237527128L64.27502861274372,150.71158612128636L64.54073770167611,152.88701448732476L64.80644679060849,151.25424266722203L65.07215587954087,129.2138730746487L65.33786496847326,146.56644143105413L65.60357405740565,149.68885656504952L65.86928314633803,138.75340223708073L66.13499223527042,150.17914266727527L66.4007013242028,143.09369973816112L66.66641041313518,153.15197002169106L66.93211950206756,152.33303680657357L67.19782859099995,151.92071156771456L67.46353767993233,136.66672472478675L67.72924676886471,155.67249705305915L67.99495585779711,161.59715265819847L68.26066494672949,148.07727482192004L68.52637403566187,155.2083663331132L68.79208312459426,161.52340613749678L69.05779221352664,145.0348556103173L69.32350130245902,152.98357933115093L69.5892103913914,155.03948030562546L69.85491948032379,124.3406288253895L70.12062856925617,147.67242141268096L70.38633765818857,157.6891251680137L70.65204674712095,144.09218165562336L70.91775583605333,152.40799580867926L71.18346492498571,144.75060779595788L71.4491740139181,156.5446541237361L71.71488310285048,167.14438836484786L71.98059219178286,159.8472784093398L72.24630128071524,147.63272284188878L72.51201036964763,147.70210582204965L72.77771945858002,152.61097255613424L73.0434285475124,137.59699934134937L73.30913763644479,155.96524516772897L73.57484672537717,132.4560224879291L73.84055581430955,151.84288796639356L74.10626490324194,160.224840543138L74.37197399217432,161.78841936170835L74.6376830811067,155.19576806448086L74.90339217003908,151.56270032356085L75.16910125897148,149.4584473014979L75.43481034790386,150.37846904003572L75.70051943683625,158.33812399190285L75.96622852576863,156.96163433632003L76.23193761470101,149.72214957370747L76.44450488584691,142.754495383578L76.7102139747793,148.53742693184472L76.97592306371169,158.79219181245247L77.24163215264407,154.66687551991376L77.50734124157646,151.39161014612134L77.77305033050884,161.38263396307178L78.03875941944123,161.08717740962996L78.30446850837362,120.45994035396589L78.570177597306,152.5565033956381L78.83588668623837,153.1389758813616L79.10159577517075,161.45656250518195L79.36730486410315,144.614815846627L79.63301395303553,143.5334037818815L79.89872304196791,151.49194472294263L80.1644321309003,144.18187543994281L80.43014121983268,151.7598901827399L80.69585030876507,129.06699074988353L80.96155939769746,145.7553381204585L81.22726848662982,152.01681290347324L81.49297757556221,152.6121800642757L81.75868666449459,152.09743744624922L82.02439575342699,134.70803113965684L82.29010484235937,141.02591067694308L82.55581393129175,154.9036167413142L82.82152302022413,154.4292231968184L83.08723210915653,160.63726226329L83.35294119808891,145.8249498706956L83.6186502870213,155.8300460312913L83.88435937595366,151.95723520770977L84.15006846488605,152.69957222269784L84.41577755381844,140.4986931271949L84.68148664275083,147.33335829875355L84.94719573168321,144.91435146999316L85.21290482061559,142.58535671435388L85.47861390954799,135.56066318165446L85.74432299848037,140.55309465132072L86.01003208741275,155.8804828705309L86.27574117634512,157.13413194705458L86.5414502652775,147.9825441173137L86.8071593542099,136.59979256839898L87.07286844314228,139.33281915030793L87.33857753207467,161.9993443773333L87.60428662100705,148.7133511204601L87.86999570993945,143.8356110418769L88.13570479887183,137.9413241670299L88.40141388780421,148.09103683398362L88.6671229767366,150.81697751144472L88.93283206566896,154.45220165899624L89.19854115460136,143.36961037522096L89.46425024353374,158.48649332216343L89.72995933246612,147.80883004656513L89.9956684213985,138.32692309307106L90.2613775103309,144.89300423792403L90.52708659926328,118.83755071671366L90.79279568819567,155.57162735318994L91.05850477712805,144.53957834181986L91.32421386606042,119.94723279496529L91.58992295499282,165.7268066303129L91.8556320439252,147.06986092496007L92.12134113285758,160.9384539830775L92.38705022178996,161.4717747205983L92.65275931072235,148.8673750502134L92.91846839965474,148.9631561078654L93.18417748858712,153.32405883024592L93.44988657751951,137.32270998787322L93.71559566645189,134.83773780496017L93.98130475538427,143.01162698133743L94.24701384431665,129.66281147222838L94.51272293324904,153.16581757387007L94.77843202218142,131.29861300386233L95.0441411111138,160.80606971322985L95.3098502000462,153.7181540779875L95.57555928897858,155.3605700487818L95.84126837791096,136.96893198478216L96.10697746684335,154.63430661827965L96.37268655577572,156.48766849240153L96.63839564470811,152.1402950333983L96.9041047336405,146.20886186608774L97.16981382257288,147.45933700646697L97.43552291150526,162.98608243266526L97.70123200043766,160.4620223955983L97.96694108937004,149.83808030181217L98.23265017830242,154.45015466414029L98.4983592672348,154.80868710620678L98.7640683561672,150.16634745744688L99.02977744509957,146.35903052273045L99.29548653403195,155.11154287963564L99.56119562296433,134.76571302774516L99.82690471189672,158.7081615794983L100.09261380082911,151.79207514850697L100.3583228897615,156.35078640392484L100.62403197869388,155.80631959042947L100.88974106762626,161.18497263860522L101.15545015655866,149.195620323493L101.36801742770454,158.94476454420052L101.63372651663693,150.2740563879426L101.89943560556932,147.6191299207511L102.1651446945017,160.12855519666581L102.43085378343409,150.82536243206454L102.69656287236647,136.5482059108632L102.96227196129887,143.28707212102478L103.22798105023125,159.1302443594345L103.49369013916362,141.72980238329563L103.759399228096,142.81499611686635L104.02510831702838,154.38427882871318L104.29081740596078,152.28276507964986L104.55652649489316,147.87558117619693L104.82223558382555,138.1568414932719L105.08794467275793,128.85557537057346L105.35365376169032,146.81803878227402L105.61936285062271,144.37851227232892L105.88507193955508,155.0200348491465L106.15078102848746,147.15506484787053L106.41649011741984,142.43663030384388L106.68219920635224,145.96917050535652L106.94790829528462,152.59363576296656L107.213617384217,156.95509250679257L107.47932647314938,148.9922317899008L107.74503556208178,142.30335681465647L108.01074465101416,153.50497617443799L108.27645373994655,146.56120756957117L108.54216282887892,163.059364450647L108.8078719178113,148.9704707823895L109.0735810067437,131.5663575438535L109.33929009567608,156.99022064932282L109.60499918460846,161.69504337381423L109.87070827354084,142.73945225908756L110.13641736247322,154.4947389680386L110.40212645140562,129.50873184193478L110.667835540338,162.11708139438767L110.93354462927037,159.52876680547723L111.19925371820275,154.55081349767835L111.46496280713514,158.4613624319641L111.73067189606753,137.91371261348232L111.99638098499992,134.0335851260717L112.2620900739323,135.23352197265578L112.52779916286468,135.1492271621352L112.79350825179708,136.48776286742014L113.05921734072946,137.8654083092141L113.32492642966184,157.92099657074814L113.59063551859421,158.3180827385732L113.8563446075266,162.7247941820861L114.12205369645899,123.41498928950165L114.38776278539137,142.14138163277565L114.65347187432376,156.73893362968462L114.91918096325614,151.68054277378076L115.18489005218854,151.4120482658006L115.45059914112092,152.19378346652422L115.7163082300533,159.54695502118946L115.98201731898567,150.20741069147638L116.24772640791805,135.02993251925753L116.51343549685045,142.99539027384066L116.77914458578283,147.84513884161922L117.04485367471521,124.07086315150751L117.3105627636476,128.16355185791434L117.57627185257999,131.8129955576819L117.84198094151238,142.3765493139127L118.10769003044476,139.94071097545734L118.37339911937714,138.44698162907284L118.63910820830951,159.54677101047596L118.9048172972419,155.80475997530112L119.17052638617429,153.12640347369438L119.43623547510667,145.46857582456565L119.70194456403905,131.47375937421853L119.96765365297145,147.00392342107762L120.23336274190383,156.75537125698747L120.49907183083621,155.57827163192547L120.7647809197686,143.0258047581482L121.03049000870097,162.4216360342956L121.29619909763336,154.49114827249443L121.56190818656574,145.33705491309263L121.82761727549813,161.48671340657563L122.09332636443051,141.22471784109578L122.35903545336289,163.14460617035263L122.62474454229529,134.85440022372924L122.89045363122767,127.98814687790676L123.15616272016005,139.65003770591358L123.42187180909244,155.30478396836858L123.68758089802482,146.87617821051478L123.9532899869572,121.14694286077815L124.21899907588958,148.91230151457358L124.48470816482197,136.67645242628873L124.75041725375435,148.64499661098972L125.01612634268675,154.31475261859154L125.28183543161913,150.67535093051768L125.54754452055151,140.91485175680944L125.8132536094839,158.48242022015415L126.07896269841626,147.7400717081776L126.29152996956218,138.4205835515817L126.55723905849457,141.89172385394116L126.82294814742696,155.12207426036193L127.08865723635934,157.53020555862923L127.35436632529172,153.53750330066686L127.6200754142241,147.89148765906197L127.8857845031565,133.13659158233696L128.15149359208885,135.21796560747262L128.41720268102125,144.13423954215818L128.68291176995365,148.70774326963513L128.94862085888602,137.41378832848005L129.2143299478184,150.26781394881925L129.48003903675078,159.58033456461538L129.74574812568318,148.02072086977276L130.01145721461558,136.44231122653716L130.27716630354794,138.82326662905422L130.5428753924803,148.03306649666874L130.8085844814127,155.19890320917762L131.0742935703451,163.79007994576293L131.34000265927747,143.0781135334028L131.60571174820987,136.36428272680007L131.87142083714224,148.61866020195396L132.13712992607464,140.80040107163265L132.40283901500703,159.39560969063297L132.6685481039394,135.41878196968605L132.9342571928718,155.56648499973747L133.19996628180417,136.03099456531854L133.46567537073656,149.13539212499106L133.73138445966893,150.33177408352114L133.99709354860133,165.7175250304595L134.2628026375337,136.15657939063985L134.5285117264661,144.29163534390452L134.7942208153985,157.59957162969752L135.05992990433086,152.16281197681366L135.32563899326325,157.00323468270238L135.59134808219562,139.14057669269033L135.85705717112802,143.17724656999772L136.1227662600604,147.01703890901274L136.38847534899278,150.10876702391408L136.65418443792515,147.1142363518323L136.91989352685755,142.7856876861447L137.18560261578995,153.37615077125437L137.45131170472231,148.5704255233611L137.7170207936547,152.32251736167734L137.98272988258708,152.87911694643256L138.24843897151948,147.91982729824346L138.51414806045184,146.15736273797248L138.77985714938424,158.5970350229943L139.0455662383166,156.14272300355765L139.311275327249,159.76131158795775L139.5769844161814,132.6066844922144L139.84269350511377,144.9051051803037L140.10840259404617,135.95212657886697L140.37411168297854,150.16715113667115L140.63982077191093,154.94601280970082L140.9055298608433,127.7851024940814L141.1712389497757,148.3440048163558L141.43694803870807,144.3096664045209L141.70265712764046,158.67596766185872L141.96836621657286,161.63715161404727L142.23407530550523,154.60858291518716L142.49978439443763,135.29938786155785L142.76549348337,137.19577641375471L143.0312025723024,144.0574105933425L143.29691166123476,149.94577530717285L143.56262075016716,160.46343977541838L143.82832983909952,154.69886951239977L144.09403892803192,137.84094383619333L144.35974801696432,104.69856933224592L144.6254571058967,152.67692398515177L144.89116619482908,155.77253323412887L145.15687528376145,139.85933646469235L145.42258437269385,137.94803210352578L145.68829346162622,153.4101678869362L145.9540025505586,165.04090918243404L146.219711639491,150.74639100175241L146.48542072842338,143.00175803917966L146.75112981735577,149.19532391704644L147.01683890628814,147.6442687681705L147.2825479952205,153.14144261957478L147.5482570841529,155.69006659491305L147.81396617308528,145.00738728673045L148.0796752620177,154.21776206349307L148.34538435095007,138.39317888575522L148.61109343988247,152.78712551482582L148.87680252881484,156.87020786733632L149.14251161774723,151.93930958025896L149.4082207066796,165.0893348343079L149.67392979561197,134.38189254038352L149.93963888454437,146.14954079067067L150.20534797347673,140.23055868342166L150.47105706240916,158.9004169675985L150.73676615134153,155.43830214207227L151.00247524027392,138.0602885852758L151.21504251141982,140.51196378092087L151.4807516003522,150.24769013933167L151.7464606892846,158.71054675620607L152.01216977821696,153.57509917606282L152.27787886714935,150.5188861235163L152.54358795608172,155.806234050314L152.80929704501412,155.75021919982458L153.0750061339465,137.6479255496216L153.3407152228789,151.7472222884322L153.60642431181128,137.00825656623235L153.87213340074368,125.4230295747253L154.13784248967605,138.6803549570903L154.40355157860841,149.79687980573695L154.6692606675408,160.02062246935637L154.93496975647318,163.38112558424442L155.20067884540558,158.8895533729354L155.46638793433794,143.54089550455154L155.73209702327037,163.57067452287762L155.99780611220274,151.99990182157785L156.26351520113514,154.92076455050588L156.5292242900675,144.12969199090386L156.79493337899987,161.60953210327963L157.06064246793227,152.59244814787522L157.32635155686464,155.0107030193416L157.59206064579703,149.09662653824884L157.8577697347294,159.46177695924413L158.12347882366183,163.36343270547982L158.3891879125942,155.62464432102834L158.6548970015266,164.18630474451837L158.92060609045896,152.82437525114995L159.18631517939133,146.85875388792664L159.45202426832373,144.4127482115619L159.7177333572561,141.03121217479642L159.9834424461885,157.60743336309955L160.24915153512086,123.33767296095837L160.51486062405328,146.43429786711278L160.78056971298565,156.65369389928398L161.04627880191805,159.68110181527652L161.31198789085042,139.380534620293L161.5776969797828,138.4749990008426L161.84340606871518,156.00733289383894L162.10911515764755,161.2368099485723L162.37482424657995,148.78136346946866L162.64053333551232,163.76019461658817L162.90624242444474,129.80915668464067L163.1719515133771,149.534792849196L163.4376606023095,145.2192224093978L163.70336969124187,161.17923050969202L163.96907878017427,148.3419995969051L164.23478786910664,142.9328604494414L164.500496958039,125.13673277620495L164.7662060469714,130.57812253650107L165.03191513590377,148.30838631014043L165.2976242248362,150.34108204166589L165.56333331376857,135.4614605193842L165.82904240270096,153.13752368870382L166.09475149163333,146.1825871255073L166.36046058056573,151.53851037463156L166.6261696694981,156.70142926231912L166.89187875843047,158.89345241075625L167.15758784736286,154.60466597362122L167.42329693629523,147.6659899895816L167.68900602522763,148.51322305778035L167.95471511416002,146.64774830544874L168.22042420309242,149.2458821038917L168.4861332920248,154.7215336643859L168.75184238095719,156.65485565341018L169.01755146988955,143.48671877189196L169.28326055882192,150.74570469152374L169.54896964775432,142.42154540394824L169.8146787366867,150.9944951333736L170.08038782561908,148.1668213976687L170.34609691455148,151.67616431345235L170.61180600348388,141.4663149560272L170.87751509241625,156.3473369490364L171.14322418134864,152.41291734927555L171.408933270281,143.08036343736984L171.67464235921338,153.6092913505856L171.94035144814578,159.34887693732315L172.20606053707814,132.90184563386217L172.47176962601054,141.9704903858372L172.7374787149429,137.25315990609144L173.00318780387533,148.84197958244766L173.2688968928077,146.97752932219655L173.5346059817401,152.71023290824982L173.80031507067247,134.35679944697938L174.06602415960486,160.8184073829058L174.33173324853723,142.30807146753168L174.5974423374696,138.23476654914847L174.863151426402,155.56491145947405L175.12886051533437,142.8818487010537L175.3945696042668,135.74925725388255L175.66027869319916,160.01599733520663L175.92598778213156,140.53175935508168L176.13855505327746,153.59672888944343L176.40426414220983,150.75963778381822L176.66997323114222,150.0895543161214L176.9356823200746,163.8355375545609L177.201391409007,151.21590677036212L177.46710049793936,150.53936005068576L177.73280958687175,153.28603525427266L177.99851867580412,137.60736362045478L178.26422776473655,144.0674923911364L178.52993685366891,154.15695497723303L178.79564594260128,153.0672872966934L179.06135503153368,160.36816797984912L179.32706412046605,152.131820594053L179.59277320939844,127.72948550459412L179.8584822983308,164.93908958942225L180.1241913872632,124.19958312152556L180.38990047619558,111.22711030224323L180.655609565128,160.10453632796742L180.92131865406037,144.72235170758685L181.18702774299274,160.06929877366156L181.45273683192514,164.2837538344218L181.7184459208575,149.8282650708897L181.9841550097899,146.63888595162638L182.24986409872227,131.50297430760472L182.51557318765467,147.3020844346814L182.78128227658704,152.29038809645058L183.04699136551946,135.7182678604269L183.31270045445183,140.9655094089052L183.57840954338423,144.48755602648677L183.8441186323166,141.41407779575297L184.10982772124896,162.63286939219722L184.37553681018136,133.06385065531813L184.64124589911373,133.42365227398142L184.90695498804612,155.15498930106787L185.1726640769785,131.9284786921592L185.43837316591092,156.02780284239836L185.70408225484329,149.3181157581328L185.96979134377568,149.1202077598449L186.23550043270805,148.7335903096383L186.50120952164042,153.6994466536675L186.76691861057282,163.7545708513231L187.03262769950518,146.74806696783L187.29833678843758,138.5072336992349L187.56404587736995,144.5841129130929L187.82975496630237,141.9790205257228L188.09546405523474,158.7890904859409L188.36117314416714,155.72245049118115L188.6268822330995,158.90178163083579L188.89259132203188,150.37277763840032L189.15830041096427,154.78366562778302L189.42400949989664,136.544613226014L189.68971858882904,155.45404749123145L189.9554276777614,161.0405988274585L190.22113676669383,168.63919143861185L190.4868458556262,144.54350920852087L190.7525549445586,158.31941159432031L191.01826403349096,154.2096098915595L191.28397312242333,146.0722284407374L191.54968221135573,151.27993255212937L191.8153913002881,140.90713126406317L192.0811003892205,149.77471298000347L192.34680947815286,150.6367802956665L192.6125185670853,139.5816095921578L192.87822765601766,141.22407728488236L193.14393674495005,150.31645444563424L193.40964583388242,138.2440685393782L193.67535492281482,118.1024149858641L193.9410640117472,146.97992643473435L194.20677310067956,143.89851087700814L194.47248218961195,134.83904278904714L194.73819127854432,133.7887732942431L195.00390036747672,136.15162999977338L195.2696094564091,140.55133809499634L195.5353185453415,145.00085838768555L195.80102763427388,158.42958925233424L196.06673672320628,155.38575862882644L196.33244581213864,146.2210921132931L196.598154901071,147.78471370192122L196.8638639900034,134.59557174879572L197.12957307893578,139.97835658347856L197.39528216786817,123.5954550614563L197.66099125680057,135.8096525540054L197.92670034573297,160.67309959305658L198.19240943466534,144.3016574625481L198.45811852359773,150.95715587832402L198.7238276125301,166.17597578727384L198.98953670146247,137.65986933690544L199.25524579039487,159.39467770123548L199.52095487932723,151.9882922375358L199.78666396825963,156.77433729095887L200.052373057192,156.5264480042788L200.31808214612442,138.07674411632377L200.5837912350568,142.7116059675487L200.8495003239892,148.0422431606828L201.0620675951351,148.78491437891265L201.32777668406746,133.42703011388946L201.59348577299986,163.54435004967192L201.85919486193222,163.26546142301115L202.12490395086462,138.06301393314038L202.390613039797,153.51508582250202L202.65632212872939,156.79313622330935L202.92203121766178,143.7719433350116L203.18774030659418,129.1500800415677L203.45344939552655,152.30333250415478L203.71915848445892,147.1773589891247L203.9848675733913,135.40478521963124L204.25057666232368,135.08100991471053L204.51628575125608,160.89929749790068L204.78199484018845,144.74462396648588L205.04770392912084,158.37650365347298L205.3134130180532,125.813215838121L205.57912210698564,148.0152283986384L205.844831195918,134.701514176442L206.11054028485037,131.15158744913643L206.37624937378277,152.44412357697738L206.64195846271514,136.65447060592123L206.90766755164753,159.29619516737907L207.1733766405799,130.98758118683975L207.4390857295123,155.57237334256894L207.70479481844467,155.32048555281753L207.9705039073771,141.59065845502187L208.23621299630946,145.68820504426466L208.50192208524183,143.22673451074726L208.76763117417423,135.81484464008315L209.0333402631066,156.14453526042234L209.299049352039,140.58600571341665L209.56475844097136,145.50552318652817L209.83046752990376,144.68175596023482L210.09617661883613,146.44199448819893L210.36188570776855,149.08132480410706L210.62759479670092,145.59502002965155L210.89330388563332,151.92842211393577L211.15901297456568,151.50225131220276L211.42472206349805,152.59871445865872L211.69043115243045,157.84360265930945L211.95614024136282,143.32752065980597L212.2218493302952,153.12982905692272L212.48755841922758,145.40849682393952L212.75326750816,150.08798873307802L213.01897659709238,156.14578653327405L213.28468568602477,142.20181075108368L213.55039477495714,158.59269038085108L213.8161038638895,132.25846460732308L214.0818129528219,139.25366868254483L214.34752204175427,155.52059571175218L214.61323113068667,152.30034257872381L214.87894021961904,144.8492972175354L215.14464930855146,132.92094296196424L215.41035839748383,158.64981625818893L215.67606748641623,160.4953790620166L215.9417765753486,160.56109276908538L216.20748566428097,159.35585641395298L216.47319475321336,157.77962561551496L216.73890384214573,135.79735069181962L217.00461293107813,125.89584361104266L217.2703220200105,157.9096008369947L217.53603110894292,163.7268260143398L217.8017401978753,155.4059620105144L218.0674492868077,155.32274142469956L218.33315837574006,148.4140442671702L218.59886746467242,135.03712982478598L218.86457655360482,156.2637125343044L219.1302856425372,128.8356982349072L219.39599473146959,138.37628968621496L219.66170382040195,144.65393552966114L219.92741290933438,142.60302174284828L220.19312199826675,152.09033960597128L220.45883108719914,132.38917786096178L220.7245401761315,147.1994144137776L220.99024926506388,136.36283451275233L221.25595835399628,166.40007994859425L221.52166744292865,143.58465225756544L221.78737653186104,140.81818346912272L222.0530856207934,153.74096742784945L222.31879470972584,123.4960216398048L222.5845037986582,146.7919987796848L222.8502128875906,135.8083674629685L223.11592197652297,146.90100075843748L223.38163106545537,148.53200408638574L223.64734015438773,154.9836663749421L223.9130492433201,152.1165765497565L224.1787583322525,167.13907095255442L224.44446742118487,149.96532420751234L224.71017651011726,147.71113925610294L224.97588559904966,149.67468077754373L225.24159468798206,144.78633173533885L225.50730377691443,164.342167786754L225.77301286584682,136.6883047055421L225.98558013699272,165.17815929233768L226.2512892259251,139.7082089630345L226.5169983148575,158.37043726784307L226.78270740378986,150.18542887110888L227.04841649272225,159.5195394141854L227.31412558165462,153.08807553405452L227.57983467058702,146.62758470986097L227.84554375951942,148.80326372833073L228.11125284845178,147.76741669485375L228.37696193738418,162.95601508208205L228.64267102631655,144.07524670206783L228.90838011524895,151.57642851743924L229.1740892041813,148.95938239626022L229.4397982931137,125.5042727913596L229.70550738204608,149.97649614445206L229.97121647097848,155.05924206160108L230.23692555991087,164.83744803920897L230.50263464884327,143.75639094843845L230.76834373777564,153.26135394700574L231.034052826708,158.2789262533964L231.2997619156404,129.840082420336L231.56547100457277,160.6510103502185L231.83118009350517,159.09576671964268L232.09688918243754,143.73867817662378L232.36259827136993,133.0677178642588L232.6283073603023,142.02450797409594L232.89401644923473,158.3699598346405L233.1597255381671,144.7572500853884L233.42543462709946,162.14223914020462L233.69114371603186,157.12169083351807L233.95685280496423,162.9679578747134L234.22256189389662,138.52902454632138L234.488270982829,150.07712314910995L234.7539800717614,145.65600615336254L235.01968916069376,160.9207014251626L235.28539824962618,150.80376056895406L235.55110733855855,162.6229517120667L235.81681642749092,155.43926496569745L236.08252551642332,156.876326969549L236.34823460535569,150.69037416195798L236.61394369428808,139.8383532754402L236.87965278322045,151.66617800229898L237.14536187215285,155.01925703088736L237.41107096108522,139.35746266077965L237.67678005001764,136.79404024546727L237.94248913895,139.94854087997916L238.20819822788238,144.00118686582695L238.47390731681477,141.6750785917581L238.73961640574714,148.5169768763354L239.00532549467954,154.43931693044237L239.2710345836119,145.90732699118595L239.5367436725443,128.7309533688773L239.80245276147667,132.1555220516328L240.0681618504091,162.12777888208234L240.33387093934147,134.33675123108225L240.59958002827386,151.83269078890905L240.86528911720623,152.12066656085838L241.1309982061386,148.79592717145152L241.396707295071,140.62685609181L241.66241638400336,118.79166540733839L241.92812547293576,166.7529747002606L242.19383456186813,128.9729006014906L242.45954365080055,132.2153842180128L242.72525273973292,122.52035904011954L242.99096182866532,156.63064382212576L243.2566709175977,147.17739081800485L243.52238000653006,153.7180983774472L243.78808909546245,138.4267742687748L244.05379818439482,147.20217755843737L244.31950727332722,157.64227604036077L244.5852163622596,144.62228767624697L244.850925451192,153.21707400677406L245.11663454012438,145.70321236126486L245.38234362905678,106.5397188629075L245.64805271798915,151.07753270312747L245.9137618069215,159.59924788200397L246.1794708958539,152.97711408986638L246.44517998478628,142.43258604675725L246.71088907371868,150.9290688808789L246.97659816265104,143.405718250469L247.24230725158347,154.44601690971817L247.50801634051584,120.74780870344463L247.77372542944823,146.7954382880482L248.0394345183806,152.88691502207425L248.30514360731297,129.94528482651833L248.57085269624537,157.68812952085588L248.83656178517774,155.04007709712863L249.10227087411013,142.35605350438814L249.3679799630425,126.38683193793717L249.63368905197493,140.09844694836048L249.8993981409073,144.36174044178424L250.1651072298397,144.6108054077256L250.43081631877206,110.34508031079847L250.69652540770446,151.31610806374775L250.90909267885036,143.0841948388203L251.17480176778272,138.85993747762024L251.44051085671512,159.0870286973835L251.7062199456475,148.25088345950306L251.9719290345799,144.95219600851544L252.23763812351226,126.20689134250533L252.50334721244468,144.44452934841178L252.76905630137705,154.11049873731972L253.03476539030942,137.07817268013608L253.3004744792418,139.54304492522166L253.56618356817418,154.2996100288506L253.83189265710658,129.2773120114378L254.09760174603895,152.49395367818872L254.36331083497134,155.11696572509462L254.6290199239037,144.80771079628812L254.89472901283614,146.1577765134147L255.1604381017685,161.58233830378427L255.42614719070087,151.38908770736785L255.69185627963327,155.86240207728926L255.95756536856564,162.55639453967345L256.22327445749806,141.2269856488079L256.4889835464304,154.9690907371292L256.7546926353628,124.16273721411862L257.0204017242952,146.99961657572962L257.2861108132276,154.1103077640387L257.55181990215993,140.4591576794136L257.81752899109233,136.37181821418037L258.0832380800247,141.60620089506995L258.34894716895707,138.23208496599415L258.6146562578895,157.34808965816825L258.88036534682186,152.09838634473928L259.14607443575426,144.11817988280734L259.41178352468665,135.80697097085104L259.67749261361905,140.08847257303717L259.9432017025514,121.597023119434L260.2089107914838,157.91514900866937L260.4746198804162,157.34198746504813L260.7403289693485,157.6375812805357L261.0060380582809,137.18317217720733L261.2717471472133,154.6711127395864L261.5374562361457,155.2296379715919L261.8031653250781,132.94121795863262L262.0688744140105,138.37990226411426L262.33458350294285,153.67446098273396L262.60029259187525,136.533389567144L262.86600168080764,135.21037839816208L263.13171076974,147.6088929571664L263.3974198586724,143.91640069696874L263.6631289476048,148.36617761000434L263.9288380365372,156.66788759053483L264.19454712546957,161.2635243255601L264.46025621440197,147.41845082058342L264.7259653033343,147.48631397171616L264.9916743922667,156.64246626180395L265.2573834811991,138.16794579384128L265.52309257013144,156.16442632122366L265.78880165906384,150.14169002184008L266.05451074799623,133.27152614120823L266.32021983692863,158.3206111452417L266.585928925861,163.23011843553974L266.8516380147934,164.56000762659593L267.11734710372576,119.85696609080279L267.38305619265816,158.88491530830314L267.64876528159056,159.78391009287856L267.9144743705229,153.7531956857498L268.1801834594553,120.28519582322183L268.4458925483877,152.58316008278055L268.7116016373201,140.13421465245167L268.9773107262525,158.77543589634791L269.2430198151849,149.25528952728695L269.5087289041172,150.5411842433805L269.7744379930496,141.6097319114638L270.040147081982,156.5840682239118L270.3058561709144,150.4579497324306L270.57156525984675,160.48289716772737L270.83727434877915,145.69802425379714L271.10298343771154,142.8769211925424L271.36869252664394,151.54935606554952L271.63440161557634,144.83656566546736L271.9001107045087,156.0615593591238L272.1658197934411,158.34250444153625L272.43152888237347,144.31242557057064L272.69723797130587,155.68263455139333L272.9629470602382,150.8903470588469L273.2286561491706,157.68213475020636L273.494365238103,134.96469922934884L273.7600743270354,146.66165155816807L274.0257834159678,159.77976338658388L274.29149250490013,164.1533628481948L274.55720159383253,142.31350028090569L274.8229106827649,160.84029968454783L275.0886197716973,147.0919581250182L275.35432886062966,151.2124075828484L275.62003794956206,154.79152736118505" fill="none"></path></g></g></g></g></g></g><g transform="translate(37, 173)" clip-path="url(#clip_1)"><clipPath id="clip_1"><rect width="292" height="26"></rect></clipPath><g><g><line x1="0" y1="0" x2="0" y2="5" style="visibility: inherit;" fill="rgb(0, 0, 0)" stroke="rgb(204, 204, 204)" stroke-width="1px"></line><line x1="26.570908893238414" y1="0" x2="26.570908893238414" y2="5" style="visibility: inherit;" fill="rgb(0, 0, 0)" stroke="rgb(204, 204, 204)" stroke-width="1px"></line><line x1="53.14181778647683" y1="0" x2="53.14181778647683" y2="5" style="visibility: inherit;" fill="rgb(0, 0, 0)" stroke="rgb(204, 204, 204)" stroke-width="1px"></line><line x1="79.71272667971523" y1="0" x2="79.71272667971523" y2="5" style="visibility: inherit;" fill="rgb(0, 0, 0)" stroke="rgb(204, 204, 204)" stroke-width="1px"></line><line x1="106.28363557295366" y1="0" x2="106.28363557295366" y2="5" style="visibility: inherit;" fill="rgb(0, 0, 0)" stroke="rgb(204, 204, 204)" stroke-width="1px"></line><line x1="132.85454446619207" y1="0" x2="132.85454446619207" y2="5" style="visibility: inherit;" fill="rgb(0, 0, 0)" stroke="rgb(204, 204, 204)" stroke-width="1px"></line><line x1="159.42545335943046" y1="0" x2="159.42545335943046" y2="5" style="visibility: inherit;" fill="rgb(0, 0, 0)" stroke="rgb(204, 204, 204)" stroke-width="1px"></line><line x1="185.9963622526689" y1="0" x2="185.9963622526689" y2="5" style="visibility: inherit;" fill="rgb(0, 0, 0)" stroke="rgb(204, 204, 204)" stroke-width="1px"></line><line x1="212.5672711459073" y1="0" x2="212.5672711459073" y2="5" style="visibility: inherit;" fill="rgb(0, 0, 0)" stroke="rgb(204, 204, 204)" stroke-width="1px"></line><line x1="239.13818003914574" y1="0" x2="239.13818003914574" y2="5" style="visibility: inherit;" fill="rgb(0, 0, 0)" stroke="rgb(204, 204, 204)" stroke-width="1px"></line><line x1="265.70908893238413" y1="0" x2="265.70908893238413" y2="5" style="visibility: inherit;" fill="rgb(0, 0, 0)" stroke="rgb(204, 204, 204)" stroke-width="1px"></line><line x1="292.27999782562256" y1="0" x2="292.27999782562256" y2="5" style="visibility: inherit;" fill="rgb(0, 0, 0)" stroke="rgb(204, 204, 204)" stroke-width="1px"></line></g><g transform="translate(0, 8)"><text style="text-anchor: middle; visibility: hidden; font-family: Roboto, sans-serif; font-size: 12px; font-weight: 200;" x="0" y="0" dx="0em" dy="0.95em" fill="rgb(33, 33, 33)" stroke="none" stroke-width="1px">-1k</text><text style="text-anchor: middle; visibility: inherit; font-family: Roboto, sans-serif; font-size: 12px; font-weight: 200;" x="26.570908893238414" y="0" dx="0em" dy="0.95em" fill="rgb(33, 33, 33)" stroke="none" stroke-width="1px">0</text><text style="text-anchor: middle; visibility: inherit; font-family: Roboto, sans-serif; font-size: 12px; font-weight: 200;" x="53.14181778647683" y="0" dx="0em" dy="0.95em" fill="rgb(33, 33, 33)" stroke="none" stroke-width="1px">1k</text><text style="text-anchor: middle; visibility: inherit; font-family: Roboto, sans-serif; font-size: 12px; font-weight: 200;" x="79.71272667971523" y="0" dx="0em" dy="0.95em" fill="rgb(33, 33, 33)" stroke="none" stroke-width="1px">2k</text><text style="text-anchor: middle; visibility: inherit; font-family: Roboto, sans-serif; font-size: 12px; font-weight: 200;" x="106.28363557295366" y="0" dx="0em" dy="0.95em" fill="rgb(33, 33, 33)" stroke="none" stroke-width="1px">3k</text><text style="text-anchor: middle; visibility: inherit; font-family: Roboto, sans-serif; font-size: 12px; font-weight: 200;" x="132.85454446619207" y="0" dx="0em" dy="0.95em" fill="rgb(33, 33, 33)" stroke="none" stroke-width="1px">4k</text><text style="text-anchor: middle; visibility: inherit; font-family: Roboto, sans-serif; font-size: 12px; font-weight: 200;" x="159.42545335943046" y="0" dx="0em" dy="0.95em" fill="rgb(33, 33, 33)" stroke="none" stroke-width="1px">5k</text><text style="text-anchor: middle; visibility: inherit; font-family: Roboto, sans-serif; font-size: 12px; font-weight: 200;" x="185.9963622526689" y="0" dx="0em" dy="0.95em" fill="rgb(33, 33, 33)" stroke="none" stroke-width="1px">6k</text><text style="text-anchor: middle; visibility: inherit; font-family: Roboto, sans-serif; font-size: 12px; font-weight: 200;" x="212.5672711459073" y="0" dx="0em" dy="0.95em" fill="rgb(33, 33, 33)" stroke="none" stroke-width="1px">7k</text><text style="text-anchor: middle; visibility: inherit; font-family: Roboto, sans-serif; font-size: 12px; font-weight: 200;" x="239.13818003914574" y="0" dx="0em" dy="0.95em" fill="rgb(33, 33, 33)" stroke="none" stroke-width="1px">8k</text><text style="text-anchor: middle; visibility: inherit; font-family: Roboto, sans-serif; font-size: 12px; font-weight: 200;" x="265.70908893238413" y="0" dx="0em" dy="0.95em" fill="rgb(33, 33, 33)" stroke="none" stroke-width="1px">9k</text><text style="text-anchor: middle; visibility: hidden; font-family: Roboto, sans-serif; font-size: 12px; font-weight: 200;" x="292.27999782562256" y="0" dx="0em" dy="0.95em" fill="rgb(33, 33, 33)" stroke="none" stroke-width="1px">10k</text></g><line x1="0" y1="0" x2="292.27999782562256" y2="0" fill="rgb(0, 0, 0)" stroke="rgb(204, 204, 204)" stroke-width="1px"></line></g></g></g></g></svg>